# xmcd
#
# Track frame offsets: 
#        150
#        18584
#        36491
#        57756
#        72993
#        91815
#        108720
#        130156
#        146703
#        161417
#        177415
#
# Disc length: 2547 seconds
#
# Revision: 0
# Processed by: cddbd v1.5.2PL0 Copyright (c) Steve Scherf et al.
# Submitted via: ExactAudioCopyFreeDBPlugin 1.0
#
DISCID=9c09f10b
DTITLE=Ty Curtis - Water Under the Bridge
DYEAR=2014
DGENRE=Blues
TTITLE0=Key To My Heart
TTITLE1=Bad Break
TTITLE2=Water Under the Bridge
TTITLE3=True Love
TTITLE4=Your Desire
TTITLE5=Thief Of Hearts
TTITLE6=Seen My Chance
TTITLE7=Alright Now
TTITLE8=All It Took
TTITLE9=Loveless Time - Bonus
TTITLE10=Shame On Me - Bonus
EXTD=
EXTT0=
EXTT1=
EXTT2=
EXTT3=
EXTT4=
EXTT5=
EXTT6=
EXTT7=
EXTT8=
EXTT9=
EXTT10=
PLAYORDER=
